<?xml version="1.0" encoding="UTF-8"?>
<svg xmlns="http://www.w3.org/2000/svg" xmlns:xlink="http://www.w3.org/1999/xlink" width="199pt" height="47pt" viewBox="0 0 199 47" version="1.1">
<g id="surface1">
<path style=" stroke:none;fill-rule:nonzero;fill:rgb(11.764706%,11.764706%,11.764706%);fill-opacity:1;" d="M 199.113281 47 L 0 47 L 0 0 L 199.113281 0 Z M 3.554688 43.4375 L 195.558594 43.4375 L 195.558594 3.5625 L 3.554688 3.5625 Z M 3.554688 43.4375 "/>
<path style=" stroke:none;fill-rule:nonzero;fill:rgb(40%,28.235294%,69.411765%);fill-opacity:1;" d="M 22.167969 13.652344 L 13.4375 13.652344 L 13.4375 33.113281 L 18.949219 33.113281 L 18.949219 26.496094 L 20.773438 26.496094 L 23.933594 33.113281 L 30.125 33.113281 L 26.296875 25.769531 C 28.398438 24.746094 29.722656 22.605469 29.710938 20.265625 C 29.714844 16.335938 27.164062 13.652344 22.167969 13.652344 Z M 18.949219 22.691406 L 18.949219 17.730469 L 21.3125 17.730469 C 22.652344 17.632812 23.820312 18.644531 23.914062 19.984375 C 23.921875 20.074219 23.921875 20.164062 23.917969 20.253906 C 23.917969 21.910156 22.75 22.691406 21.300781 22.691406 Z M 47.636719 28.75 L 39.578125 28.75 L 39.578125 25.359375 L 47.109375 25.359375 L 47.109375 21.394531 L 39.578125 21.394531 L 39.578125 18.015625 L 47.636719 18.015625 L 47.636719 13.65625 L 34.011719 13.65625 L 34.011719 33.113281 L 47.636719 33.113281 Z M 57.515625 33.113281 L 57.515625 22.960938 L 57.726562 22.960938 L 64.71875 33.113281 L 68.945312 33.113281 L 68.945312 13.65625 L 63.777344 13.65625 L 63.777344 23.652344 L 63.566406 23.652344 L 56.617188 13.65625 L 52.347656 13.65625 L 52.347656 33.113281 Z M 83.179688 33.113281 L 83.179688 18.1875 L 88.21875 18.1875 L 88.21875 13.65625 L 72.515625 13.65625 L 72.515625 18.1875 L 77.558594 18.1875 L 77.558594 33.113281 Z M 94.152344 33.113281 L 95.132812 29.222656 L 100.628906 29.222656 L 101.585938 33.113281 L 107.59375 33.113281 L 101.644531 13.65625 L 94.578125 13.65625 L 88.589844 33.113281 Z M 98.050781 18.402344 L 99.703125 25.230469 L 96.089844 25.230469 L 97.785156 18.402344 Z M 124.019531 28.484375 L 116.703125 28.484375 L 116.703125 13.65625 L 111.078125 13.65625 L 111.078125 33.113281 L 124.019531 33.113281 Z M 132.542969 22.464844 C 132.542969 19.5 133.671875 17.917969 135.621094 17.917969 C 137.484375 17.917969 138.496094 19.359375 138.496094 21.296875 L 143.820312 21.296875 L 143.820312 20.527344 C 143.820312 16.164062 140.386719 13.328125 135.5625 13.328125 C 129.910156 13.328125 126.792969 16.890625 126.792969 22.480469 L 126.792969 24.304688 C 126.792969 29.863281 129.914062 33.457031 135.566406 33.457031 C 140.390625 33.457031 143.820312 30.621094 143.820312 26.300781 L 143.820312 25.519531 L 138.496094 25.519531 C 138.496094 27.429688 137.488281 28.863281 135.621094 28.863281 C 133.671875 28.863281 132.546875 27.28125 132.546875 24.34375 Z M 152.039062 33.117188 L 153.019531 29.222656 L 158.511719 29.222656 L 159.46875 33.117188 L 165.476562 33.117188 L 159.523438 13.65625 L 152.464844 13.65625 L 146.46875 33.117188 Z M 155.9375 18.40625 L 157.589844 25.234375 L 153.976562 25.234375 L 155.664062 18.40625 Z M 177.6875 13.652344 L 168.960938 13.652344 L 168.960938 33.113281 L 174.472656 33.113281 L 174.472656 26.496094 L 176.292969 26.496094 L 179.453125 33.113281 L 185.644531 33.113281 L 181.816406 25.769531 C 183.914062 24.746094 185.242188 22.605469 185.226562 20.265625 C 185.230469 16.332031 182.6875 13.652344 177.6875 13.652344 Z M 174.46875 22.691406 L 174.46875 17.730469 L 176.832031 17.730469 C 178.171875 17.632812 179.335938 18.644531 179.433594 19.984375 C 179.441406 20.074219 179.441406 20.164062 179.4375 20.253906 C 179.4375 21.910156 178.269531 22.691406 176.820312 22.691406 Z M 174.46875 22.691406 "/>
</g>
</svg>
