<?xml version="1.0" encoding="UTF-8"?>
<svg xmlns="http://www.w3.org/2000/svg" xmlns:xlink="http://www.w3.org/1999/xlink" width="228pt" height="54pt" viewBox="0 0 228 54" version="1.1">
<g id="surface1">
<path style=" stroke:none;fill-rule:nonzero;fill:rgb(78.039216%,78.039216%,78.039216%);fill-opacity:1;" d="M 228.128906 54 L 0 54 L 0 0 L 228.128906 0 Z M 4.074219 49.910156 L 224.058594 49.910156 L 224.058594 4.089844 L 4.074219 4.089844 Z M 4.074219 49.910156 "/>
<path style=" stroke:none;fill-rule:nonzero;fill:rgb(78.039216%,78.039216%,78.039216%);fill-opacity:1;" d="M 25.398438 15.6875 L 15.398438 15.6875 L 15.398438 38.042969 L 21.710938 38.042969 L 21.710938 30.445312 L 23.800781 30.445312 L 27.417969 38.042969 L 34.515625 38.042969 L 30.128906 29.609375 C 32.535156 28.429688 34.054688 25.972656 34.039062 23.285156 C 34.042969 18.765625 31.125 15.6875 25.398438 15.6875 Z M 21.710938 26.074219 L 21.710938 20.375 L 24.421875 20.375 C 25.957031 20.261719 27.289062 21.421875 27.398438 22.960938 C 27.40625 23.066406 27.410156 23.167969 27.40625 23.273438 C 27.40625 25.171875 26.066406 26.074219 24.402344 26.074219 Z M 54.578125 33.035156 L 45.34375 33.035156 L 45.34375 29.136719 L 53.972656 29.136719 L 53.972656 24.582031 L 45.34375 24.582031 L 45.34375 20.699219 L 54.578125 20.699219 L 54.578125 15.6875 L 38.96875 15.6875 L 38.96875 38.042969 L 54.578125 38.042969 Z M 65.894531 38.046875 L 65.894531 26.382812 L 66.140625 26.382812 L 74.148438 38.046875 L 78.992188 38.046875 L 78.992188 15.691406 L 73.074219 15.691406 L 73.074219 27.171875 L 72.828125 27.171875 L 64.871094 15.691406 L 59.976562 15.691406 L 59.976562 38.046875 Z M 95.300781 38.046875 L 95.300781 20.898438 L 101.074219 20.898438 L 101.074219 15.6875 L 83.085938 15.6875 L 83.085938 20.898438 L 88.859375 20.898438 L 88.859375 38.046875 Z M 107.871094 38.046875 L 108.996094 33.574219 L 115.292969 33.574219 L 116.390625 38.046875 L 123.273438 38.046875 L 116.457031 15.691406 L 108.363281 15.691406 L 101.5 38.046875 Z M 112.339844 21.144531 L 114.234375 28.988281 L 110.09375 28.988281 L 112.035156 21.144531 Z M 142.09375 32.722656 L 133.707031 32.722656 L 133.707031 15.6875 L 127.265625 15.6875 L 127.265625 38.042969 L 142.09375 38.042969 Z M 151.859375 25.8125 C 151.859375 22.40625 153.152344 20.585938 155.382812 20.585938 C 157.519531 20.585938 158.679688 22.242188 158.679688 24.46875 L 164.777344 24.46875 L 164.777344 23.585938 C 164.777344 18.574219 160.847656 15.3125 155.320312 15.3125 C 148.84375 15.3125 145.269531 19.40625 145.269531 25.828125 L 145.269531 27.925781 C 145.269531 34.3125 148.84375 38.441406 155.320312 38.441406 C 160.851562 38.441406 164.78125 35.179688 164.78125 30.21875 L 164.78125 29.316406 L 158.679688 29.316406 C 158.679688 31.511719 157.523438 33.164062 155.386719 33.164062 C 153.152344 33.164062 151.863281 31.34375 151.863281 27.972656 Z M 174.195312 38.046875 L 175.320312 33.578125 L 181.609375 33.578125 L 182.707031 38.046875 L 189.589844 38.046875 L 182.773438 15.691406 L 174.683594 15.691406 L 167.8125 38.046875 Z M 178.664062 21.144531 L 180.554688 28.992188 L 176.414062 28.992188 L 178.351562 21.144531 Z M 203.582031 15.6875 L 193.585938 15.6875 L 193.585938 38.042969 L 199.898438 38.042969 L 199.898438 30.445312 L 201.984375 30.445312 L 205.601562 38.042969 L 212.699219 38.042969 L 208.308594 29.609375 C 210.714844 28.429688 212.234375 25.972656 212.222656 23.285156 C 212.226562 18.765625 209.308594 15.683594 203.578125 15.683594 Z M 199.894531 26.070312 L 199.894531 20.375 L 202.601562 20.375 C 204.136719 20.261719 205.472656 21.421875 205.582031 22.960938 C 205.589844 23.066406 205.589844 23.167969 205.585938 23.273438 C 205.585938 25.171875 204.25 26.074219 202.585938 26.074219 Z M 199.894531 26.070312 "/>
</g>
</svg>
